
        <svg xmlns="http://www.w3.org/2000/svg" xmlns:xlink="http://www.w3.org/1999/xlink" version="1.1" width="3171.4285714285716" 
        height="1957.189806366417" viewBox="0 0 3171.4285714285716 1957.189806366417">
			<rect fill="#000000" width="3171.4285714285716" height="1957.189806366417"/>
			<g transform="scale(8.571428571428571) translate(10, 10)">
				<defs id="SvgjsDefs1231"><linearGradient id="SvgjsLinearGradient1240"><stop id="SvgjsStop1241" stop-color="#905e26" offset="0"></stop><stop id="SvgjsStop1242" stop-color="#f5ec9b" offset="0.5"></stop><stop id="SvgjsStop1243" stop-color="#905e26" offset="1"></stop></linearGradient><linearGradient id="SvgjsLinearGradient1244"><stop id="SvgjsStop1245" stop-color="#905e26" offset="0"></stop><stop id="SvgjsStop1246" stop-color="#f5ec9b" offset="0.5"></stop><stop id="SvgjsStop1247" stop-color="#905e26" offset="1"></stop></linearGradient><linearGradient id="SvgjsLinearGradient1248"><stop id="SvgjsStop1249" stop-color="#905e26" offset="0"></stop><stop id="SvgjsStop1250" stop-color="#f5ec9b" offset="0.5"></stop><stop id="SvgjsStop1251" stop-color="#905e26" offset="1"></stop></linearGradient><linearGradient id="SvgjsLinearGradient1252"><stop id="SvgjsStop1253" stop-color="#905e26" offset="0"></stop><stop id="SvgjsStop1254" stop-color="#f5ec9b" offset="0.5"></stop><stop id="SvgjsStop1255" stop-color="#905e26" offset="1"></stop></linearGradient></defs><g id="SvgjsG1232" featureKey="symbolContainer" transform="matrix(0.7327995078939475,0,0,0.7327995078939475,102,0)" fill="url(#SvgjsLinearGradient1240)"><path xmlns="http://www.w3.org/2000/svg" d="M100.215 200.43c55.259 0 100.215-44.956 100.215-100.215S155.474 0 100.215 0 0 44.956 0 100.215 44.956 200.43 100.215 200.43zm0-190.43c49.745 0 90.215 40.47 90.215 90.215s-40.47 90.215-90.215 90.215C50.47 190.43 10 149.959 10 100.215S50.47 10 100.215 10z"></path></g><g id="SvgjsG1233" featureKey="symbolFeature-0" transform="matrix(0.1369495800880283,0,0,0.1369495800880283,128,26)" fill="url(#SvgjsLinearGradient1244)"><g xmlns="http://www.w3.org/2000/svg"><path class="st0" d="M688.4,325.5V194.2C688.4,87,609.9,0,513.6,0h-129v299.3H304V0.1H174.8c-13.2,0-26,1.7-38.3,4.8   C69.4,21.6,16.8,81.1,3.3,156.4C1.1,168.6,0,181.2,0,194.3c0,107.2,78.5,194.2,174.8,194.2h48.9v211h-48.9   c-52.2,0-94.7-47.2-94.7-105.2v-70.1c-31.3-12.6-58.6-34-80.1-61.3v131.4c0,107.2,78.5,194.2,174.8,194.2h129V389.3h80.6v299.2h129   c13.2,0,26-1.7,38.3-4.8c67-16.7,119.8-76.4,133.2-151.5c2.2-12.3,3.3-24.9,3.3-37.9c0-107.2-78.5-194.2-174.8-194.2h-48.9V89h48.9   c52.2,0,94.7,47.2,94.7,105.2v70.1c31.3,12.6,58.6,34,80.1,61.3H688.4z M223.8,299.4L223.8,299.4h-49c-52.2,0-94.7-47.2-94.7-105.2   c0-4,0.3-8,0.7-11.9c4.2-42.1,31.1-76.8,66.9-88.8c8.7-2.9,17.7-4.4,27.2-4.4h48.9 M464.6,389.2h8h0.1h40.9   c52.2,0,94.7,47.2,94.7,105.2c0,4-0.3,8-0.7,11.9c-4.2,42.1-31.1,76.8-66.9,88.8c-8.7,2.9-17.7,4.4-27.2,4.4h-48.9" style="fill: url(#SvgjsLinearGradient1244);"></path></g></g><g id="SvgjsG1234" featureKey="nameFeature-0" transform="matrix(0.8362107973327699,0,0,0.8362107973327699,-2.792022710912315,154.10479368987785)" fill="url(#SvgjsLinearGradient1248)"><path d="M8.916 22.009 c-0.43632 0.24117 -0.88236 0.64612 -0.88236 1.8193 c0 0.91448 0.29558 1.4144 1.0547 1.7822 c0.76772 0.37195 1.6239 0.39914 1.6671 0.4002 l17.067 0.06672 c2.9656 0 7.3912 1.8316 7.3912 6.8776 s-4.1128 6.8776 -6.8776 6.8776 l-24.997 0 l0 -4.6954 l24.977 0 c0.2048 -0.0070704 0.81636 -0.08422 1.3204 -0.36305 c0.43656 -0.24144 0.88256 -0.64636 0.88256 -1.8193 c0 -0.91448 -0.29558 -1.4144 -1.0547 -1.7822 c-0.7654 -0.37094 -1.6208 -0.39894 -1.6686 -0.40024 l-17.056 -0.07586 l0 0.0091406 c-2.975 0 -7.4008 -1.8316 -7.4008 -6.8776 s4.1128 -6.8776 6.8776 -6.8776 l24.997 0 l0 4.6954 l-24.976 0 c-0.20457 0.0070704 -0.81668 0.08422 -1.321 0.36305 z M73.774 16.974 l0.083516 11.4 c0.034258 2.5224 -0.98356 4.9712 -2.8664 6.896 c-1.9964 2.0406 -5.8816 4.484 -13.054 4.5368 c-0.069572 0.0005078 -0.13941 0.00078124 -0.20848 0.00078124 c-5.4292 0 -9.9632 -1.5595 -12.785 -4.402 c-1.9399 -1.954 -2.9907 -4.4436 -2.9611 -7.0128 l-0.083984 -11.384 l4.6952 -0.034805 l0.084492 11.433 l-0.00027344 0.025625 c-0.019375 1.3246 0.53336 2.5915 1.598 3.664 c1.9603 1.9747 5.3772 3.043 9.6272 3.014 c4.3352 -0.031914 7.7912 -1.1416 9.732 -3.1251 c1.0183 -1.0408 1.5467 -2.2692 1.5279 -3.553 l0 -0.016758 l-0.08422 -11.407 z M105.12800000000001 16.95 c2.9747 0 7.4 1.8319 7.4 6.8776 s-4.1128 6.8776 -6.8776 6.8776 l-20.344 0 l-0.033476 9.0684 l-4.6952 -0.017539 l0.075588 -20.455 l0 -2.3514 l0.0086328 0 l0 -0.0086328 l2.3477 0.0086328 l22.118 0 z M106.95100000000001 25.647 c0.43632 -0.24144 0.8826 -0.64608 0.88236 -1.819 c0 -0.94328 -0.31914 -1.4539 -1.139 -1.8214 c-0.745 -0.33402 -1.5585 -0.36098 -1.5661 -0.36098 l-19.779 0 l0 4.3645 l20.281 0 c0.2048 -0.0070704 0.81636 -0.08422 1.3204 -0.36305 z M151.094 21.902 l-27.18 0.000039062 l0 4.3726 l18.128 0.0675 l-0.017266 4.6956 l-18.111 -0.0675 l0 4.3564 l27.18 0 l0 4.6954 l-31.875 0 l0 -22.815 l31.875 0 l0 4.6951 z M186.435 35.114 l2.324 -0.034844 l0.069572 4.6484 l-2.3241 0.034805 c-0.36176 0.005508 -0.77084 0.011797 -1.2174 0.011797 c-3.2279 0 -8.4052 -0.32016 -11.676 -3.5423 c-1.456 -1.4345 -2.3731 -3.258 -2.7396 -5.44 l-8.4109 0 l-0.033203 8.9792 l-4.6492 -0.017266 l0.074804 -20.255 l0 -2.327 l0.0086328 0 l0 -0.0086328 l2.3223 0.0086328 l21.902 0 c2.9457 0 7.3276 1.8136 7.3276 6.8096 c0 4.9964 -4.0724 6.81 -6.8096 6.81 l-6.9651 0 c0.25086 0.8504 0.65684 1.5585 1.2347 2.1279 c2.337 2.3019 7.216 2.2292 9.5608 2.1939 z M162.5028 26.143 l20.081 -0.000039062 c0.20297 -0.0070704 0.80852 -0.083436 1.3076 -0.35942 c0.43216 -0.2391 0.87372 -0.64012 0.87372 -1.8015 c0 -0.93384 -0.31598 -1.4394 -1.1276 -1.8033 c-0.73764 -0.33062 -1.543 -0.3573 -1.5506 -0.3573 l-19.584 0 l0 4.3216 z M223.318 17.234 l4.6951 0 l0 22.815 l-4.6951 0 l0 -9.0599 l-22.484 0 l0 9.0599 l-4.6954 0 l0 -22.815 l4.6954 0 l0 9.0599 l22.484 0 l0 -9.0599 z M266.574 16.974 l0.083516 11.4 c0.034258 2.5224 -0.98356 4.9712 -2.8664 6.896 c-1.9964 2.0406 -5.8816 4.484 -13.054 4.5368 c-0.069572 0.0005078 -0.13941 0.00078124 -0.20848 0.00078124 c-5.4292 0 -9.9632 -1.5595 -12.785 -4.402 c-1.9399 -1.954 -2.9907 -4.4436 -2.9611 -7.0128 l-0.083984 -11.384 l4.6952 -0.034805 l0.084492 11.433 l-0.00027344 0.025625 c-0.019375 1.3246 0.53336 2.5915 1.598 3.664 c1.9603 1.9747 5.3772 3.043 9.6272 3.014 c4.3352 -0.031914 7.7912 -1.1416 9.732 -3.1251 c1.0183 -1.0408 1.5467 -2.2692 1.5279 -3.553 l0 -0.016758 l-0.08422 -11.407 z M289.31600000000003 28.125999999999998 l15.938 -10.625 l0 22.5 l-4.6954 0 l0 -13.726 l-11.242 7.4944 l-11.242 -7.4944 l0 13.726 l-4.6954 0 l0 -22.5 z M328.271 15.421 l18.353 24.38 l-5.9015 0 l-5.132 -6.7948 l-14.639 0 l-5.0572 6.7948 l-5.8354 0 z M324.47200000000004 28.311 l7.5966 0 l-3.7984 -5.0644 z M378.63800000000003 17.185 l4.6952 0 l0 22.5 l-27.179 -14.196 l0 14.511 l-4.6954 0 l0 -22.5 l27.18 14.196 l0 -14.511 z M395.596 22.009 c-0.43632 0.24117 -0.88236 0.64612 -0.88236 1.8193 c0 0.91448 0.29558 1.4144 1.0547 1.7822 c0.76772 0.37195 1.6239 0.39914 1.6671 0.4002 l17.067 0.06672 c2.9656 0 7.3912 1.8316 7.3912 6.8776 s-4.1128 6.8776 -6.8776 6.8776 l-24.997 0 l0 -4.6954 l24.977 0 c0.2048 -0.0070704 0.81636 -0.08422 1.3204 -0.36305 c0.43656 -0.24144 0.88256 -0.64636 0.88256 -1.8193 c0 -0.91448 -0.29558 -1.4144 -1.0547 -1.7822 c-0.7654 -0.37094 -1.6208 -0.39894 -1.6686 -0.40024 l-17.056 -0.07586 l0 0.0091406 c-2.975 0 -7.4008 -1.8316 -7.4008 -6.8776 s4.1128 -6.8776 6.8776 -6.8776 l24.997 0 l0 4.6954 l-24.976 0 c-0.20457 0.0070704 -0.81668 0.08422 -1.321 0.36305 z"></path></g><g id="SvgjsG1235" featureKey="sloganFeature-0" transform="matrix(0.8887412833032945,0,0,0.8887412833032945,54.55215086476814,190.49466404312983)" fill="url(#SvgjsLinearGradient1252)"><path d="M17.567 12.0424 c0 1.0081 -0.32878 1.759 -0.8114 2.2982 c0.48524 0.53376 0.8113 1.2642 0.8113 2.2318 c0 2.523 -2.0564 3.4388 -3.4388 3.4388 l-12.499 0 l0 -11.408 l12.237 0 c1.4875 0 3.7004 0.9158 3.7004 3.4388 z M14.778 17.4818 c0.21816 -0.12072 0.44116 -0.32318 0.44102 -0.90964 c0 -0.47164 -0.15969 -0.72696 -0.56946 -0.91072 c-0.3725 -0.16701 -0.77926 -0.18049 -0.78304 -0.18049 l-9.8895 0 l0 2.1822 l10.141 0 c0.1024 -0.0033984 0.40832 -0.041972 0.66036 -0.18139 z M14.778 12.952 c0.21816 -0.12072 0.44116 -0.32304 0.44116 -0.90964 c0 -0.47164 -0.15969 -0.72696 -0.56946 -0.91072 c-0.3725 -0.16701 -0.77926 -0.18049 -0.78304 -0.18049 l-9.8895 0 l0 2.1822 l10.14 0 c0.1024 -0.0033984 0.40832 -0.041972 0.66036 -0.18139 z M35.525000000000006 9.649 c0.91776 0.9099 0.9102 2.226 0.89856 4.2182 c-0.00091796 0.14832 -0.0016992 0.302 -0.0023438 0.46118 c-0.0044532 1.1823 -0.0075976 2.0366 -0.13172 2.757 c-0.10568 0.6142 -0.34974 1.4995 -1.2436 2.0954 c-1.1321 0.75466 -2.8232 0.77168 -6.5282 0.8087 c-0.57862 0.0057618 -1.1122 0.010078 -1.6046 0.010078 c-2.9354 0 -4.411 -0.15537 -5.3538 -1.0922 c-0.98198 -0.9757 -0.97648 -2.4126 -0.96838 -4.5876 c0.0090234 -2.4268 0.014512 -3.8916 1.2447 -4.801 c1.0614 -0.7845 2.6028 -0.80516 5.9798 -0.85054 l0.67396 -0.0092774 c4.2088 -0.060156 5.9508 -0.085136 7.0354 0.99024 z M34.091 13.854199999999999 c0.006543 -1.1448 0.013457 -2.3288 -0.20864 -2.5488 c-0.27556 -0.27322 -1.5123 -0.33638 -3.1584 -0.33638 c-0.67736 0 -1.4242 0.010723 -2.2018 0.021836 l-0.67606 0.0092774 c-2.4194 0.032442 -4.1674 0.055976 -4.625 0.39406 c-0.2888 0.21346 -0.2935 1.4744 -0.29898 2.9346 c-0.0050976 1.3559 -0.0099414 2.6366 0.28016 2.9248 c0.4554 0.45254 2.9138 0.42782 5.2914 0.40428 c2.7302 -0.027206 4.7028 -0.046954 5.258 -0.4171 c0.32686 -0.2179 0.33104 -1.3516 0.33692 -2.9208 c0.00052734 -0.16074 0.0014453 -0.316 0.0023632 -0.46588 z M54.253 10.8272 c0.95568 0.96942 1.4718 2.2114 1.4534 3.497 c-0.02289 1.5915 -0.78998 3.0436 -2.16 4.0892 c-1.4271 1.089 -3.4354 1.6646 -5.8082 1.6646 c-4.5288 0 -6.808 -0.0667 -6.8304 -0.067344 l-1.1387 -0.03414 l0 -11.373 l7.9691 0 c3.5728 0 5.5148 1.2092 6.5148 2.2236 z M47.7384 17.7304 c3.8486 0 5.5962 -1.7276 5.6208 -3.4396 c0.009414 -0.66168 -0.25962 -1.2893 -0.77796 -1.8153 c-0.9689 -0.9829 -2.6888 -1.5241 -4.843 -1.5241 l-5.6214 0 l0 6.737 c1.09 0.018965 2.963 0.041992 5.6214 0.041992 z M73.99000000000001 8.445 l0.016758 1.1737 c0.01832 1.2629 -0.49072 2.489 -1.4333 3.4524 c-0.88466 0.90428 -2.5122 1.966 -5.367 2.2142 l-0.036758 4.6262 l-2.3476 -0.016094 l0.036484 -4.5994 c-2.2324 -0.18141 -4.09 -0.92992 -5.3086 -2.1572 c-0.97334 -0.9804 -1.4991 -2.2306 -1.4804 -3.5202 l0.017129 -1.1737 l2.3474 0.03414 l-0.017012 1.1737 c-0.0095508 0.66232 0.26668 1.2959 0.79912 1.832 c0.98028 0.98734 2.6908 1.5237 4.8134 1.507 c2.1676 -0.01582 3.8956 -0.57064 4.8658 -1.5624 c0.50916 -0.5203 0.77322 -1.1346 0.76394 -1.7765 l-0.017012 -1.1737 z M92.8226 15.578800000000001 l-6.5734 0.000019531 l0 -2.375 l6.5734 0 l0 2.375 z M113.018 14.0628 l7.9688 -5.3126 l0 11.25 l-2.3477 0 l0 -6.8631 l-5.621 3.7472 l-5.621 -3.7472 l0 6.8631 l-2.3477 0 l0 -11.25 z M126.65379999999999 20.02461 l-2.3246 0 l0 -11.295 l2.3246 0 l0 11.295 z M143.599 8.593 l2.3476 0 l0 11.25 l-13.59 -7.098 l0 7.2556 l-2.3477 0 l0 -11.25 l13.59 7.098 l0 -7.2556 z M163.773 10.8272 c0.95568 0.96942 1.4718 2.2114 1.4534 3.497 c-0.02289 1.5915 -0.78998 3.0436 -2.16 4.0892 c-1.4271 1.089 -3.4354 1.6646 -5.8082 1.6646 c-4.5288 0 -6.808 -0.0667 -6.8304 -0.067344 l-1.1387 -0.03414 l0 -11.373 l7.9691 0 c3.5728 0 5.5148 1.2092 6.5148 2.2236 z M157.2584 17.7304 c3.8486 0 5.5962 -1.7276 5.6208 -3.4396 c0.009414 -0.66168 -0.25962 -1.2893 -0.77796 -1.8153 c-0.9689 -0.9829 -2.6888 -1.5241 -4.843 -1.5241 l-5.6214 0 l0 6.737 c1.09 0.018965 2.963 0.041992 5.6214 0.041992 z M184.04260000000002 15.578800000000001 l-6.5734 0.000019531 l0 -2.375 l6.5734 0 l0 2.375 z M199.058 11.0046 c-0.21816 0.12059 -0.44118 0.32306 -0.44118 0.90966 c0 0.45724 0.14779 0.70718 0.52734 0.89108 c0.38386 0.18598 0.81196 0.19957 0.83354 0.2001 l8.5334 0.03336 c1.4828 0 3.6956 0.9158 3.6956 3.4388 s-2.0564 3.4388 -3.4388 3.4388 l-12.499 0 l0 -2.3477 l12.488 0 c0.1024 -0.0035352 0.40818 -0.04211 0.66022 -0.18152 c0.21828 -0.12072 0.44128 -0.32318 0.44128 -0.90964 c0 -0.45724 -0.14779 -0.70718 -0.52734 -0.89108 c-0.3827 -0.18547 -0.81038 -0.19947 -0.8343 -0.20012 l-8.5278 -0.03793 l0 0.0045703 c-1.4875 0 -3.7004 -0.9158 -3.7004 -3.4388 s2.0564 -3.4388 3.4388 -3.4388 l12.499 0 l0 2.3477 l-12.488 0 c-0.10229 0.0035352 -0.40834 0.04211 -0.6605 0.18152 z M230.48499999999999 9.649 c0.91776 0.9099 0.9102 2.226 0.89856 4.2182 c-0.00091796 0.14832 -0.0016992 0.302 -0.0023438 0.46118 c-0.0044532 1.1823 -0.0075976 2.0366 -0.13172 2.757 c-0.10568 0.6142 -0.34974 1.4995 -1.2436 2.0954 c-1.1321 0.75466 -2.8232 0.77168 -6.5282 0.8087 c-0.57862 0.0057618 -1.1122 0.010078 -1.6046 0.010078 c-2.9354 0 -4.411 -0.15537 -5.3538 -1.0922 c-0.98198 -0.9757 -0.97648 -2.4126 -0.96838 -4.5876 c0.0090234 -2.4268 0.014512 -3.8916 1.2447 -4.801 c1.0614 -0.7845 2.6028 -0.80516 5.9798 -0.85054 l0.67396 -0.0092774 c4.2088 -0.060156 5.9508 -0.085136 7.0354 0.99024 z M229.051 13.854199999999999 c0.006543 -1.1448 0.013457 -2.3288 -0.20864 -2.5488 c-0.27556 -0.27322 -1.5123 -0.33638 -3.1584 -0.33638 c-0.67736 0 -1.4242 0.010723 -2.2018 0.021836 l-0.67606 0.0092774 c-2.4194 0.032442 -4.1674 0.055976 -4.625 0.39406 c-0.2888 0.21346 -0.2935 1.4744 -0.29898 2.9346 c-0.0050976 1.3559 -0.0099414 2.6366 0.28016 2.9248 c0.4554 0.45254 2.9138 0.42782 5.2914 0.40428 c2.7302 -0.027206 4.7028 -0.046954 5.258 -0.4171 c0.32686 -0.2179 0.33104 -1.3516 0.33692 -2.9208 c0.00052734 -0.16074 0.0014453 -0.316 0.0023632 -0.46588 z M250.667 8.487 l0.041758 5.7 c0.017129 1.2612 -0.49178 2.4856 -1.4332 3.448 c-0.9982 1.0203 -2.9408 2.242 -6.5268 2.2684 c-0.034786 0.0002539 -0.069706 0.00039062 -0.10424 0.00039062 c-2.7146 0 -4.9816 -0.77976 -6.3926 -2.201 c-0.96994 -0.97702 -1.4953 -2.2218 -1.4805 -3.5064 l-0.041992 -5.6918 l2.3476 -0.017402 l0.042246 5.7166 l-0.00013672 0.012813 c-0.0096876 0.66232 0.26668 1.2957 0.799 1.832 c0.98014 0.98734 2.6886 1.5215 4.8136 1.507 c2.1676 -0.015957 3.8956 -0.57078 4.866 -1.5626 c0.50916 -0.5204 0.77336 -1.1346 0.76394 -1.7765 l0 -0.0083789 l-0.04211 -5.7036 z M256.41700000000003 17.619 l13.59 0 l0 2.3477 l-15.938 0 l0 -11.407 l2.3477 0 l0 9.0597 z"></path></g>
			</g>
		</svg>
	